<svg xmlns="http://www.w3.org/2000/svg" width="800" height="600" viewBox="0 0 800 600">
  <!-- Background -->
  <rect width="800" height="600" fill="#1a202c"/>
  
  <!-- Browser Window -->
  <rect x="50" y="50" width="700" height="500" rx="10" fill="#ffffff"/>
  
  <!-- Browser Header -->
  <rect x="50" y="50" width="700" height="40" rx="10" fill="#f1f5f9"/>
  <circle cx="80" cy="70" r="8" fill="#ef4444"/>
  <circle cx="105" cy="70" r="8" fill="#f59e0b"/>
  <circle cx="130" cy="70" r="8" fill="#10b981"/>
  
  <!-- URL Bar -->
  <rect x="160" y="60" width="500" height="20" rx="5" fill="#e2e8f0"/>
  <text x="180" y="75" font-family="Arial" font-size="12" fill="#64748b">https://cryptoexchange.example.com</text>
  
  <!-- Exchange Header -->
  <rect x="50" y="90" width="700" height="60" fill="#1e293b"/>
  <text x="100" y="130" font-family="Arial" font-size="24" font-weight="bold" fill="white">CryptoTrade</text>
  
  <!-- Navigation -->
  <rect x="300" y="105" width="400" height="30" fill="#1e293b"/>
  <text x="330" y="125" font-family="Arial" font-size="14" fill="white">Exchange</text>
  <text x="420" y="125" font-family="Arial" font-size="14" fill="#94a3b8">Wallet</text>
  <text x="490" y="125" font-family="Arial" font-size="14" fill="#94a3b8">Markets</text>
  <text x="570" y="125" font-family="Arial" font-size="14" fill="#94a3b8">NFTs</text>
  <text x="630" y="125" font-family="Arial" font-size="14" fill="#94a3b8">Learn</text>
  
  <!-- Main Content Area -->
  <rect x="70" y="170" width="660" height="360" fill="#ffffff"/>
  
  <!-- Trading Pair Selector -->
  <rect x="70" y="170" width="200" height="40" fill="#f8fafc"/>
  <text x="90" y="195" font-family="Arial" font-size="16" fill="#0f172a" font-weight="bold">BTC/USDT</text>
  <text x="180" y="195" font-family="Arial" font-size="16" fill="#10b981">$43,256.78</text>
  
  <!-- Price Chart -->
  <rect x="70" y="210" width="400" height="200" fill="#f8fafc"/>
  <polyline points="90,360 120,340 150,345 180,320 210,330 240,300 270,310 300,280 330,290 360,260 390,270 420,240 450,250" stroke="#10b981" stroke-width="2" fill="none"/>
  
  <!-- Volume Bars -->
  <rect x="90" y="380" width="10" height="10" fill="#10b981" opacity="0.5"/>
  <rect x="120" y="380" width="10" height="15" fill="#10b981" opacity="0.5"/>
  <rect x="150" y="380" width="10" height="8" fill="#10b981" opacity="0.5"/>
  <rect x="180" y="380" width="10" height="20" fill="#10b981" opacity="0.5"/>
  <rect x="210" y="380" width="10" height="12" fill="#10b981" opacity="0.5"/>
  <rect x="240" y="380" width="10" height="18" fill="#10b981" opacity="0.5"/>
  <rect x="270" y="380" width="10" height="10" fill="#10b981" opacity="0.5"/>
  <rect x="300" y="380" width="10" height="15" fill="#10b981" opacity="0.5"/>
  <rect x="330" y="380" width="10" height="8" fill="#10b981" opacity="0.5"/>
  <rect x="360" y="380" width="10" height="12" fill="#10b981" opacity="0.5"/>
  <rect x="390" y="380" width="10" height="18" fill="#10b981" opacity="0.5"/>
  <rect x="420" y="380" width="10" height="10" fill="#10b981" opacity="0.5"/>
  <rect x="450" y="380" width="10" height="15" fill="#10b981" opacity="0.5"/>
  
  <!-- Order Book -->
  <rect x="490" y="210" width="240" height="200" fill="#f8fafc"/>
  <text x="510" y="230" font-family="Arial" font-size="14" fill="#0f172a" font-weight="bold">Order Book</text>
  
  <!-- Sell Orders -->
  <rect x="510" y="240" width="200" height="15" fill="#fee2e2" opacity="0.3"/>
  <text x="520" y="252" font-family="Arial" font-size="12" fill="#ef4444">43,267.50</text>
  <text x="600" y="252" font-family="Arial" font-size="12" fill="#64748b">0.235 BTC</text>
  
  <rect x="510" y="260" width="180" height="15" fill="#fee2e2" opacity="0.3"/>
  <text x="520" y="272" font-family="Arial" font-size="12" fill="#ef4444">43,265.20</text>
  <text x="600" y="272" font-family="Arial" font-size="12" fill="#64748b">0.118 BTC</text>
  
  <rect x="510" y="280" width="160" height="15" fill="#fee2e2" opacity="0.3"/>
  <text x="520" y="292" font-family="Arial" font-size="12" fill="#ef4444">43,262.75</text>
  <text x="600" y="292" font-family="Arial" font-size="12" fill="#64748b">0.542 BTC</text>
  
  <!-- Buy Orders -->
  <rect x="510" y="320" width="140" height="15" fill="#dcfce7" opacity="0.3"/>
  <text x="520" y="332" font-family="Arial" font-size="12" fill="#10b981">43,251.30</text>
  <text x="600" y="332" font-family="Arial" font-size="12" fill="#64748b">0.326 BTC</text>
  
  <rect x="510" y="340" width="170" height="15" fill="#dcfce7" opacity="0.3"/>
  <text x="520" y="352" font-family="Arial" font-size="12" fill="#10b981">43,248.60</text>
  <text x="600" y="352" font-family="Arial" font-size="12" fill="#64748b">0.875 BTC</text>
  
  <rect x="510" y="360" width="190" height="15" fill="#dcfce7" opacity="0.3"/>
  <text x="520" y="372" font-family="Arial" font-size="12" fill="#10b981">43,245.10</text>
  <text x="600" y="372" font-family="Arial" font-size="12" fill="#64748b">1.234 BTC</text>
  
  <!-- Buy/Sell Interface -->
  <rect x="70" y="430" width="200" height="100" fill="#f8fafc"/>
  <text x="90" y="450" font-family="Arial" font-size="14" fill="#0f172a" font-weight="bold">Buy BTC</text>
  <rect x="90" y="460" width="160" height="30" rx="5" fill="#f1f5f9"/>
  <text x="100" y="480" font-family="Arial" font-size="12" fill="#64748b">Amount (BTC)</text>
  <rect x="90" y="500" width="160" height="30" rx="5" fill="#dcfce7"/>
  <text x="170" y="520" font-family="Arial" font-size="14" fill="#0f172a" text-anchor="middle" font-weight="bold">BUY</text>
  
  <rect x="290" y="430" width="200" height="100" fill="#f8fafc"/>
  <text x="310" y="450" font-family="Arial" font-size="14" fill="#0f172a" font-weight="bold">Sell BTC</text>
  <rect x="310" y="460" width="160" height="30" rx="5" fill="#f1f5f9"/>
  <text x="320" y="480" font-family="Arial" font-size="12" fill="#64748b">Amount (BTC)</text>
  <rect x="310" y="500" width="160" height="30" rx="5" fill="#fee2e2"/>
  <text x="390" y="520" font-family="Arial" font-size="14" fill="#0f172a" text-anchor="middle" font-weight="bold">SELL</text>
  
  <!-- Market Stats -->
  <rect x="510" y="430" width="220" height="100" fill="#f8fafc"/>
  <text x="530" y="450" font-family="Arial" font-size="14" fill="#0f172a" font-weight="bold">Market Stats</text>
  <text x="530" y="470" font-family="Arial" font-size="12" fill="#64748b">24h Volume: 2,543.87 BTC</text>
  <text x="530" y="490" font-family="Arial" font-size="12" fill="#64748b">24h High: $43,892.15</text>
  <text x="530" y="510" font-family="Arial" font-size="12" fill="#64748b">24h Low: $42,103.28</text>
</svg>