<svg xmlns="http://www.w3.org/2000/svg" width="1200" height="800" viewBox="0 0 1200 800">
  <!-- Background -->
  <rect width="1200" height="800" fill="#f5f5f5"/>
  
  <!-- Crypto exchange interface mockup -->
  <rect x="100" y="100" width="1000" height="600" rx="10" fill="#ffffff" stroke="#4776E6" stroke-width="2"/>
  
  <!-- Header -->
  <rect x="100" y="100" width="1000" height="60" rx="10" fill="#4776E6"/>
  <circle cx="140" cy="130" r="15" fill="#ffffff"/>
  <rect x="170" y="120" width="100" height="20" rx="5" fill="#ffffff" opacity="0.7"/>
  <rect x="800" y="120" width="80" height="20" rx="5" fill="#ffffff" opacity="0.7"/>
  <rect x="900" y="120" width="80" height="20" rx="5" fill="#ffffff" opacity="0.7"/>
  <rect x="1000" y="120" width="60" height="20" rx="5" fill="#ffffff" opacity="0.7"/>
  
  <!-- Sidebar -->
  <rect x="100" y="160" width="200" height="540" fill="#f0f0f0"/>
  <rect x="120" y="180" width="160" height="30" rx="5" fill="#4776E6" opacity="0.7"/>
  <rect x="120" y="230" width="160" height="30" rx="5" fill="#ffffff" stroke="#4776E6" stroke-width="1"/>
  <rect x="120" y="280" width="160" height="30" rx="5" fill="#ffffff" stroke="#4776E6" stroke-width="1"/>
  <rect x="120" y="330" width="160" height="30" rx="5" fill="#ffffff" stroke="#4776E6" stroke-width="1"/>
  <rect x="120" y="380" width="160" height="30" rx="5" fill="#ffffff" stroke="#4776E6" stroke-width="1"/>
  
  <!-- Main content area -->
  <rect x="320" y="180" width="760" height="300" rx="5" fill="#ffffff" stroke="#dddddd" stroke-width="1"/>
  
  <!-- Price chart -->
  <polyline points="340,400 380,380 420,390 460,350 500,340 540,360 580,330 620,320 660,340 700,310 740,300 780,320 820,290 860,270 900,280 940,250 980,240 1020,260 1060,230" fill="none" stroke="#4776E6" stroke-width="2"/>
  <rect x="320" y="180" width="760" height="40" rx="5" fill="#f9f9f9"/>
  <rect x="340" y="190" width="100" height="20" rx="5" fill="#4776E6" opacity="0.7"/>
  <rect x="460" y="190" width="60" height="20" rx="5" fill="#dddddd"/>
  <rect x="540" y="190" width="60" height="20" rx="5" fill="#dddddd"/>
  
  <!-- Order book -->
  <rect x="320" y="500" width="370" height="200" rx="5" fill="#ffffff" stroke="#dddddd" stroke-width="1"/>
  <rect x="320" y="500" width="370" height="40" rx="5" fill="#f9f9f9"/>
  <rect x="340" y="510" width="100" height="20" rx="5" fill="#4776E6" opacity="0.7"/>
  
  <!-- Buy/Sell form -->
  <rect x="710" y="500" width="370" height="200" rx="5" fill="#ffffff" stroke="#dddddd" stroke-width="1"/>
  <rect x="710" y="500" width="370" height="40" rx="5" fill="#f9f9f9"/>
  <rect x="730" y="510" width="100" height="20" rx="5" fill="#4776E6" opacity="0.7"/>
  <rect x="730" y="560" width="330" height="40" rx="5" fill="#f9f9f9"/>
  <rect x="730" y="620" width="330" height="40" rx="5" fill="#f9f9f9"/>
  <rect x="730" y="680" width="150" height="40" rx="5" fill="#4776E6"/>
  
  <!-- Gradient overlay for visual appeal -->
  <rect width="1200" height="800" fill="url(#grad)" opacity="0.05"/>
  
  <!-- Gradient definition -->
  <defs>
    <linearGradient id="grad" x1="0%" y1="0%" x2="100%" y2="100%">
      <stop offset="0%" style="stop-color:#4776E6;stop-opacity:1" />
      <stop offset="100%" style="stop-color:#8E54E9;stop-opacity:1" />
    </linearGradient>
  </defs>
</svg>